<svg version="1.1" id="Layer_1" xmlns="http://www.w3.org/2000/svg" x="0px"
     y="0px" viewBox="0 0 148.8 164.9" style="enable-background:new 0 0 148.8 164.9;" xml:space="preserve" >
  <g>
	<path class="st0" d="M74.1,166.5c-14.7,0-29.3,0-44,0C12.2,166.4,0,154.2,0,136.3c-0.1-27.5,0-55,0-82.5c0-6.6,1-7.6,7.5-7.6
		c7.2,0,14.3,0,21.5,0c6.8,0,6.8,0,6.8-6.6c0-16.4,7.3-28.6,21.9-35.8C82.5-8.3,111.2,9.3,112.3,37c0.4,9.1,0.4,9.1,9.3,9.1
		c6.7,0,13.3,0.1,20,0c4.6-0.1,6.6,2,6.6,6.6c-0.1,28.5,0.1,57-0.1,85.5c-0.1,15.6-12.7,27.8-28.6,28.2c-0.3,0-0.7,0-1,0
		C103.7,166.5,88.9,166.5,74.1,166.5z M10.1,56.6c0,2,0,3.5,0,5c0,24.6,0,49.3,0,73.9c0,13.1,7.6,20.7,20.8,20.7
		c28.8,0,57.6,0,86.4,0c13.2,0,20.7-7.7,20.7-20.8c0-24.6,0-49.3,0-73.9c0-1.6-0.1-3.2-0.2-4.7c-8.7,0-16.9,0-25.5,0
		c0,4.1,0,7.7,0,11.3c0,3.5-1.5,6.1-5.1,6c-3.6-0.1-5.1-2.7-5.1-6.2c0-3.8,0-7.5,0-11.2c-19.1,0-37.5,0-56.2,0c0,4,0,7.7,0,11.3
		c0,3.5-1.6,6.1-5.2,6.1c-3.6,0-5.1-2.6-5-6.1c0-3.8,0-7.5,0-11.5C26.9,56.6,18.8,56.6,10.1,56.6z M101.8,45.9
		c1.7-12.9-1.4-23.7-12.4-31.1c-9.2-6.2-21.9-6-31,0.3c-10.7,7.5-13.7,18.1-12,30.8C64.9,45.9,83.3,45.9,101.8,45.9z"></path>
</g>
</svg>
