<svg version="1.1" fill="#df0074" id="Layer_1" xmlns="http://www.w3.org/2000/svg" xmlns:xlink="http://www.w3.org/1999/xlink" x="0px" y="0px" viewBox="0 0 215 222" style="enable-background:new 0 0 215 222;" xml:space="preserve">

<path class="st0" d="M84.6,216c-1.1-0.3-2.2-0.6-3.3-0.9c-10.9-3-19-13.2-19.2-24.6c-0.2-14.8-0.1-29.5,0-44.3c0-5.2,3.9-9,9-8.9
	c4.9,0,8.6,3.9,8.6,9c0,14.1,0.1,28.2,0,42.2c-0.1,5.8,3.9,10,9.9,10c31.4-0.2,62.7-0.1,94.1-0.1c6.4,0,9.7-3.4,9.7-9.7
	c0-51.8,0-103.6,0-155.4c0-6.3-3.4-9.7-9.7-9.7c-31.4,0-62.7,0.1-94.1-0.1c-6,0-10,4.2-9.9,10c0.2,13.9,0.1,27.9,0.1,41.8
	c0,5.6-3.6,9.5-8.8,9.5c-5.1,0-8.8-3.9-8.8-9.5c0-14.1,0-28.2,0-42.2c0-13.5,8.5-23.9,21.8-26.6c0.2-0.1,0.5-0.2,0.7-0.4
	c34.6,0,69.2,0,103.8,0c0.3,0.1,0.6,0.3,0.9,0.4c9.1,1.7,15.5,6.9,19.4,15.3c1,2.2,1.5,4.6,2.3,6.9c0,55,0,109.9,0,164.9
	c-0.1,0.4-0.3,0.7-0.4,1.1c-2.2,10.3-8.4,17.1-18.5,20.4c-1.2,0.4-2.5,0.7-3.7,1C153.7,216,119.1,216,84.6,216z"></path>
  <path class="st0" d="M0.9,108.9c1.9-5.1,5.7-6.8,11.1-6.8c34.9,0.1,69.9,0.1,104.8,0.1c0.8,0,1.6,0,3,0c-3.9-3.9-7.4-7.4-10.9-10.8
	c-2.2-2.2-3.3-4.8-2.7-8c0.7-3.4,2.6-5.8,6-6.9c3.3-1,6.4-0.3,8.9,2.2c4.3,4.2,8.5,8.5,12.8,12.8c4.3,4.3,8.6,8.6,12.9,12.9
	c4,4,4,9.2,0,13.3c-8.5,8.5-17,17-25.5,25.5c-3.9,3.9-9.2,4-12.8,0.4c-3.6-3.5-3.4-9,0.4-12.8c3.5-3.5,7-7,11-11c-1.4,0-2.2,0-3,0
	c-34.9,0-69.9-0.1-104.8,0.1c-5.3,0-9.1-1.7-11.1-6.8C0.9,111.7,0.9,110.3,0.9,108.9z"></path>
</svg>
